<svg width="7" height="10" viewBox="0 0 7 10" fill="none" xmlns="http://www.w3.org/2000/svg">
<path d="M1.77816 0.590996C1.45176 0.264598 0.922566 0.264598 0.596168 0.590996V0.590996C0.26977 0.917394 0.26977 1.44659 0.596168 1.77299L4.41124 5.58806C4.73764 5.91446 5.26683 5.91446 5.59323 5.58806V5.58806C5.91963 5.26166 5.91963 4.73247 5.59323 4.40607L1.77816 0.590996Z" fill="white"/>
<path fill-rule="evenodd" clip-rule="evenodd" d="M0.596168 0.590996C0.922566 0.264598 1.45176 0.264598 1.77816 0.590996L5.59323 4.40607C5.91963 4.73247 5.91963 5.26166 5.59323 5.58806C5.26683 5.91446 4.73764 5.91446 4.41124 5.58806L0.596168 1.77299C0.26977 1.44659 0.26977 0.917394 0.596168 0.590996Z" fill="white"/>
<path d="M0.593642 8.23757C0.269912 8.5613 0.269911 9.08617 0.593641 9.40989V9.40989C0.917371 9.73362 1.44224 9.73362 1.76597 9.40989L5.59332 5.58254C5.91705 5.25881 5.91705 4.73394 5.59332 4.41021V4.41021C5.2696 4.08648 4.74473 4.08648 4.421 4.41021L0.593642 8.23757Z" fill="white"/>
<path fill-rule="evenodd" clip-rule="evenodd" d="M0.593641 9.40989C0.269911 9.08617 0.269912 8.5613 0.593642 8.23757L4.421 4.41021C4.74473 4.08648 5.2696 4.08648 5.59332 4.41021C5.91705 4.73394 5.91705 5.25881 5.59332 5.58254L1.76597 9.40989C1.44224 9.73362 0.917371 9.73362 0.593641 9.40989Z" fill="white"/>
</svg>
