<svg width="8" height="11" viewBox="0 0 8 11" fill="none" xmlns="http://www.w3.org/2000/svg">
<path d="M5.40409 9.41071C5.73049 9.73711 6.25968 9.73711 6.58608 9.41071V9.41071C6.91248 9.08431 6.91248 8.55512 6.58608 8.22872L2.77101 4.41365C2.44461 4.08725 1.91542 4.08725 1.58902 4.41365V4.41365C1.26262 4.74005 1.26262 5.26924 1.58902 5.59564L5.40409 9.41071Z" fill="black"/>
<path fill-rule="evenodd" clip-rule="evenodd" d="M6.58608 9.41071C6.25968 9.73711 5.73049 9.73711 5.40409 9.41071L1.58902 5.59564C1.26262 5.26924 1.26262 4.74005 1.58902 4.41365C1.91542 4.08725 2.44461 4.08725 2.77101 4.41365L6.58608 8.22872C6.91248 8.55512 6.91248 9.08431 6.58608 9.41071Z" fill="black"/>
<path d="M6.58861 1.76366C6.91234 1.43993 6.91234 0.915056 6.58861 0.591326V0.591326C6.26488 0.267596 5.74001 0.267596 5.41628 0.591326L1.58893 4.41868C1.2652 4.74241 1.2652 5.26728 1.58893 5.59101V5.59101C1.91266 5.91474 2.43753 5.91474 2.76126 5.59101L6.58861 1.76366Z" fill="black"/>
<path fill-rule="evenodd" clip-rule="evenodd" d="M6.58861 0.591326C6.91234 0.915056 6.91234 1.43993 6.58861 1.76366L2.76126 5.59101C2.43753 5.91474 1.91266 5.91474 1.58893 5.59101C1.2652 5.26728 1.2652 4.74241 1.58893 4.41868L5.41628 0.591326C5.74001 0.267596 6.26488 0.267596 6.58861 0.591326Z" fill="black"/>
</svg>
